<svg id="Layer_1" data-name="Layer 1" xmlns="http://www.w3.org/2000/svg" xmlns:xlink="http://www.w3.org/1999/xlink" viewBox="0 0 1453.23 3061.41"><defs><style>.cls-1{fill:none;}.cls-2{clip-path:url(#clip-path);}.cls-3{fill:#1d3d78;}.cls-4{clip-path:url(#clip-path-2);}.cls-5{opacity:0.6;}.cls-11,.cls-14,.cls-20,.cls-5,.cls-8{isolation:isolate;}.cls-6{clip-path:url(#clip-path-3);}.cls-7{fill:#fff;}.cls-8{opacity:0.2;}.cls-9{clip-path:url(#clip-path-4);}.cls-10{clip-path:url(#clip-path-5);}.cls-11{opacity:0.5;}.cls-12{clip-path:url(#clip-path-6);}.cls-13{clip-path:url(#clip-path-7);}.cls-14{opacity:0.3;}.cls-15{clip-path:url(#clip-path-8);}.cls-16{clip-path:url(#clip-path-9);}.cls-17{clip-path:url(#clip-path-10);}.cls-18{clip-path:url(#clip-path-11);}.cls-19{clip-path:url(#clip-path-12);}.cls-20{opacity:0.1;}.cls-21{clip-path:url(#clip-path-13);}</style><clipPath id="clip-path"><rect class="cls-1" width="5442.85" height="3061.42"/></clipPath><clipPath id="clip-path-2"><path class="cls-1" d="M0,0V3061.41H1452.08c-111.47-318-258.85-853-258.54-1532.85C1193.85,851,1340.75,317.6,1452.08,0Z"/></clipPath><clipPath id="clip-path-3"><rect class="cls-1" x="-345.19" y="2489.51" width="909.95" height="909.89"/></clipPath><clipPath id="clip-path-4"><rect class="cls-1" x="-222.53" y="2612.91" width="663.15" height="663.11"/></clipPath><clipPath id="clip-path-5"><rect class="cls-1" x="-455.87" y="2379.59" width="1129.82" height="1129.76"/></clipPath><clipPath id="clip-path-6"><rect class="cls-1" x="-493.01" y="2342.35" width="1204.29" height="653.17"/></clipPath><clipPath id="clip-path-7"><rect class="cls-1" x="-535.25" y="2300.2" width="1288.6" height="1288.52"/></clipPath><clipPath id="clip-path-8"><rect class="cls-1" x="-612.97" y="2222.49" width="1444.03" height="1443.95"/></clipPath><clipPath id="clip-path-9"><rect class="cls-1" x="-746.86" y="2088.61" width="1711.83" height="1711.72"/></clipPath><clipPath id="clip-path-10"><rect class="cls-1" x="-773.89" y="2061.59" width="1765.87" height="1765.76"/></clipPath><clipPath id="clip-path-11"><rect class="cls-1" x="-634.33" y="2913.92" width="774.01" height="774.07"/></clipPath><clipPath id="clip-path-12"><rect class="cls-1" x="-867.39" y="1968.83" width="1952.87" height="1952.76"/></clipPath><clipPath id="clip-path-13"><rect class="cls-1" x="-1006.48" y="1829.01" width="2231.06" height="2230.93"/></clipPath></defs><title>actemium</title><g class="cls-2"><path class="cls-3" d="M1194.48,1528.56c-.31,679.82,147.19,1214.86,258.75,1532.85H0V0H1453.23c-111.43,317.6-258.44,851-258.75,1528.56"/><g class="cls-4"><g class="cls-5"><g class="cls-6"><path class="cls-7" d="M109.79,3399.4a7.56,7.56,0,0,1-7.62-7.23,6.93,6.93,0,0,1,6.88-7.24c243.62,0,441.22-197.59,441.22-440.47S352.67,2504,109.79,2504-330.7,2701.59-330.7,2944.46a7.25,7.25,0,0,1-7.24,7.25,7.26,7.26,0,0,1-7.25-7.25c0-250.86,204.11-454.95,455-454.95s455,204.09,455,454.95-204.1,454.94-455,454.94"/></g></g><g class="cls-8"><g class="cls-9"><path class="cls-7" d="M109.05,3276c-182.83,0-331.58-148.74-331.58-331.56s148.75-331.55,331.58-331.55,331.57,148.73,331.57,331.55S291.88,3276,109.05,3276m0-647c-173.93,0-315.42,141.49-315.42,315.4s141.49,315.42,315.42,315.42,315.41-141.5,315.41-315.42S283,2629.06,109.05,2629.06"/></g></g><g class="cls-5"><g class="cls-10"><path class="cls-7" d="M109.05,3509.35c-311.49,0-564.92-253.41-564.92-564.89s253.43-564.88,564.92-564.88S674,2633,674,2944.46s-253.42,564.89-564.91,564.89m0-1101.91c-296.13,0-537.06,240.91-537.06,537s240.93,537,537.06,537,537.05-240.91,537.05-537-240.92-537-537.05-537"/></g></g><g class="cls-11"><g class="cls-12"><path class="cls-7" d="M660.22,2995.52a51.06,51.06,0,0,1-51.07-51.06c0-275.69-224.3-500-500-500s-500,224.29-500,500a51.06,51.06,0,0,1-51.07,51.06A51.06,51.06,0,0,1-493,2944.46c0-332,270.13-602.11,602.15-602.11s602.15,270.1,602.15,602.11a51.06,51.06,0,0,1-51.07,51.06"/></g></g><g class="cls-5"><g class="cls-13"><path class="cls-7" d="M109.05,3588.72c-355.27,0-644.3-289-644.3-644.26s289-644.26,644.3-644.26a3.62,3.62,0,0,1,0,7.24c-351.28,0-637.07,285.76-637.07,637s285.79,637,637.07,637,637.06-285.76,637.06-637a3.62,3.62,0,1,1,7.23,0c0,355.24-289,644.26-644.29,644.26"/></g></g><g class="cls-14"><g class="cls-15"><path class="cls-7" d="M109.05,3666.44c-398.13,0-722-323.87-722-722s323.89-722,722-722,722,323.87,722,722-323.89,722-722,722m0-1425.38c-387.89,0-703.45,315.54-703.45,703.4s315.56,703.41,703.45,703.41,703.44-315.55,703.44-703.41-315.56-703.4-703.44-703.4"/></g></g><g class="cls-8"><g class="cls-16"><path class="cls-7" d="M109.05,3800.33c-471.95,0-855.91-383.94-855.91-855.87s384-855.85,855.91-855.85S965,2472.54,965,2944.46s-384,855.87-855.91,855.87m0-1693.15c-461.72,0-837.34,375.6-837.34,837.28s375.62,837.3,837.34,837.3,837.34-375.61,837.34-837.3-375.63-837.28-837.34-837.28"/></g></g><g class="cls-5"><g class="cls-17"><path class="cls-7" d="M109.05,3827.35a36.31,36.31,0,1,1,0-72.61c446.81,0,810.32-363.48,810.32-810.28a36.31,36.31,0,0,1,72.61,0c0,486.82-396.08,882.89-882.93,882.89m-846.63-846.59a36.3,36.3,0,0,1-36.3-36.3c0-486.82,396.08-882.87,882.93-882.87a36.31,36.31,0,0,1,0,72.61c-446.82,0-810.32,363.47-810.32,810.26a36.31,36.31,0,0,1-36.31,36.3"/></g></g><g class="cls-11"><g class="cls-18"><path class="cls-7" d="M109.05,3688c-409.91,0-743.38-333.47-743.38-743.35a30.71,30.71,0,0,1,30.64-30.72A30.56,30.56,0,0,1-573,2944.46c0,376.27,306,682.23,682.1,682.23a30.65,30.65,0,0,1,0,61.3"/></g></g><g class="cls-14"><g class="cls-19"><path class="cls-7" d="M109.05,3921.59a12.82,12.82,0,1,1,0-25.64c523.88,0,950.41-426.17,950.81-950,.39-524.25-425.81-951.09-950.08-951.49H109c-524,0-950.4,426-950.8,950a12.81,12.81,0,0,1-12.82,12.8h0a12.8,12.8,0,0,1-12.8-12.82C-867,2406.34-429,1968.83,109,1968.83h.76c260.82.2,505.94,102,690.22,286.5s285.66,429.82,285.46,690.63c-.41,538-438.44,975.63-976.43,975.63"/></g></g><g class="cls-20"><g class="cls-21"><path class="cls-7" d="M109.05,4059.94c-615.11,0-1115.53-500.41-1115.53-1115.48S-506.06,1829,109.05,1829,1224.58,2329.4,1224.58,2944.46,724.16,4059.94,109.05,4059.94m0-2166.68c-579.68,0-1051.28,471.56-1051.28,1051.2s471.6,1051.21,1051.28,1051.21,1051.27-471.56,1051.27-1051.21-471.6-1051.2-1051.27-1051.2"/></g></g></g></g></svg>